 http://img713.imageshack.us/img713/516/hallpass2011.png

Country.......: USA
Genre.........: Comedy, Romance
Date release..: 23.02.2011 [World]
Director......: Bobby Farrelly, Peter Farrelly
Writers.......: Pete Jones, Peter Farrelly
Duration......: 112 min.
More..........: http://www.imdb.com/title/tt0480687
Trailer.......: http://www.imdb.com/video/imdb/vi811440665
Trailer.......:

Pilot :
A married man is granted the opportunity to have an affair by his wife. Joined in the fun by his best pal, things get a little out of control when both wives start engaging in extramarital activities as well. 

Cats :
Owen Wilson   	 ...  	Rick
Jason Sudeikis 	... 	Fred
Jenna Fischer 	... 	Maggie
Christina Applegate 	... 	Grace
Nicky Whelan 	... 	Leigh
Richard Jenkins 	... 	Coakley
Stephen Merchant 	... 	Gary
Larry Joe Campbell 	... 	Hog Head
Bruce Thomas 	... 	Rick Coleman
Tyler Hoechlin 	... 	Gerry
Derek Waters 	... 	Brent
Alexandra Daddario 	... 	Paige
Rob Moran 	... 	Ed Long
Lauren Bowles 	... 	Britney
Christa Campbell 	... 	Emma 

Data Technical :
!!! SAMPLE !!!
Audio.....: Lector Polish
Subtitles.: None
Format                           : AVI
Format/Info                      : Audio Video Interleave
File size                        : 721 MiB
Duration                         : 1h 51mn
Overall bit rate                 : 903 Kbps
Original source form/Distributed : Absurditys own shit
Writing application              : VirtualDubMod 1.5.10.2 (build 2542/release)
Writing library                  : VirtualDubMod build 2542/release
Copyright                        : By AbSurdiTy
Video
ID                               : 0
Format                           : MPEG-4 Visual
Format profile                   : Advanced Simple@L5
Format settings, BVOP            : Yes
Format settings, QPel            : No
Format settings, GMC             : No warppoints
Format settings, Matrix          : Default (H.263)
Muxing mode                      : Packed bitstream
Codec ID                         : XVID
Codec ID/Hint                    : XviD
Duration                         : 1h 51mn
Bit rate                         : 758 Kbps
Width                            : 672 pixels
Height                           : 288 pixels
Display aspect ratio             : 2.35:1
Frame rate                       : 23.976 fps
Color space                      : YUV
Chroma subsampling               : 4:2:0
Bit depth                        : 8 bits
Scan type                        : Progressive
Bits/(Pixel*Frame)               : 0.163
Stream size                      : 605 MiB (84%)
Writing library                  : XviD 1.2.1 (UTC 2008-12-04)
Audio
ID                               : 1
Format                           : MPEG Audio
Format version                   : Version 1
Format profile                   : Layer 3
Mode                             : Joint stereo
Mode extension                   : MS Stereo
Codec ID                         : 55
Codec ID/Hint                    : MP3
Duration                         : 1h 51mn
Bit rate mode                    : Variable
Bit rate                         : 128 Kbps
Channel(s)                       : 2 channels
Sampling rate                    : 48.0 KHz
Stream size                      : 106 MiB (15%)
Alignment                        : Aligned on interleaves
Interleave, duration             : 24 ms (0.58 video frame)
Interleave, preload duration     : 138 ms
Writing library                  : LAME3.90.
Encoding settings                : -m j -V 4 -q 2 -lowpass 17.6 --abr 128

Screen : 
http://img21.imageshack.us/img21/6378/hallpass2011s1.jpg 
http://img30.imageshack.us/img30/3990/hallpass2011s2.jpg 
http://img153.imageshack.us/img153/8559/hallpass2011s3.jpg 
http://img807.imageshack.us/img807/8093/hallpass2011s4.jpg 
http://img215.imageshack.us/img215/7402/hallpass2011s5.jpg